<!-- source: hand-crafted simplified continent outlines, equirectangular projection -->
<!-- license: CC0 / public domain — original artwork, no third-party data -->
<!-- viewBox: 0 0 1000 500 (equirectangular, 2:1, lon -180..180, lat -90..90) -->
<!-- coordinate mapping: x = (lon + 180) / 360 * 1000, y = (90 - lat) / 180 * 500 -->
<!-- NOTE: rough approximation suitable for pin placement; swap for higher-fidelity SVG before v1 -->
<svg xmlns="http://www.w3.org/2000/svg" viewBox="0 0 1000 500" fill="currentColor">

  <!-- North America -->
  <path d="
    M 155,55
    L 195,50 L 230,55 L 250,65 L 265,60 L 280,70
    L 290,80 L 300,75 L 315,80 L 320,95 L 305,105
    L 310,120 L 295,135 L 285,150 L 270,165 L 255,175
    L 240,195 L 225,205 L 215,220 L 200,230 L 195,245
    L 185,250 L 180,240 L 175,225 L 165,215 L 155,200
    L 145,185 L 140,170 L 130,155 L 125,140 L 120,120
    L 115,100 L 120,85 L 130,70 L 145,60 Z
  "/>

  <!-- Greenland -->
  <path d="
    M 265,30 L 280,25 L 300,22 L 315,25 L 320,35
    L 310,45 L 295,50 L 275,48 L 260,40 Z
  "/>

  <!-- Alaska bump -->
  <path d="
    M 95,70 L 110,65 L 125,68 L 130,78 L 120,85
    L 105,82 L 95,75 Z
  "/>

  <!-- Central America -->
  <path d="
    M 195,245 L 205,255 L 210,265 L 205,272 L 195,268
    L 188,260 L 185,250 Z
  "/>

  <!-- Caribbean islands (approximate blob) -->
  <path d="
    M 225,245 L 250,240 L 265,248 L 255,255 L 235,258 L 222,252 Z
  "/>

  <!-- South America -->
  <path d="
    M 215,275
    L 235,268 L 255,270 L 270,280 L 280,295 L 285,315
    L 280,335 L 275,355 L 265,375 L 250,390 L 235,400
    L 225,410 L 220,425 L 210,435 L 200,445 L 192,440
    L 185,425 L 188,408 L 192,390 L 195,370 L 198,350
    L 200,330 L 198,310 L 195,295 L 200,280 Z
  "/>

  <!-- Europe (main body) -->
  <path d="
    M 465,95
    L 475,88 L 490,85 L 505,90 L 515,98 L 520,110
    L 510,120 L 520,130 L 525,142 L 515,150 L 505,145
    L 495,155 L 485,150 L 480,140 L 470,135 L 460,125
    L 455,115 L 460,105 Z
  "/>

  <!-- Iberian Peninsula -->
  <path d="
    M 445,140 L 455,132 L 465,135 L 470,148 L 462,158
    L 450,155 L 443,148 Z
  "/>

  <!-- British Isles -->
  <path d="
    M 455,100 L 465,95 L 470,105 L 462,112 L 452,108 Z
  "/>

  <!-- Scandinavia -->
  <path d="
    M 478,60 L 488,55 L 498,58 L 505,68 L 510,80
    L 502,90 L 492,88 L 482,78 L 475,68 Z
  "/>

  <!-- Italy -->
  <path d="
    M 480,148 L 488,142 L 495,148 L 498,162 L 490,170
    L 482,165 L 478,155 Z
  "/>

  <!-- Africa -->
  <path d="
    M 460,185
    L 475,178 L 490,175 L 510,178 L 530,185 L 545,195
    L 555,210 L 560,230 L 558,250 L 555,270 L 548,290
    L 538,310 L 525,330 L 510,348 L 495,362 L 480,370
    L 465,362 L 452,345 L 445,325 L 440,305 L 438,280
    L 440,258 L 445,238 L 448,215 L 452,198 Z
  "/>

  <!-- Madagascar -->
  <path d="
    M 563,332 L 570,325 L 575,335 L 572,350 L 562,355
    L 558,345 Z
  "/>

  <!-- Middle East / Arabian Peninsula -->
  <path d="
    M 530,175 L 548,172 L 568,175 L 578,185 L 585,200
    L 580,218 L 570,225 L 555,220 L 545,210 L 535,198 Z
  "/>

  <!-- Asia (main body — huge mass) -->
  <path d="
    M 520,85
    L 545,78 L 575,72 L 610,68 L 645,65 L 680,68
    L 715,72 L 748,78 L 775,85 L 800,95 L 820,108
    L 835,120 L 840,135 L 835,148 L 820,158 L 808,170
    L 818,182 L 825,198 L 815,210 L 800,215 L 788,208
    L 772,215 L 760,228 L 745,235 L 730,230 L 718,218
    L 705,225 L 692,235 L 678,232 L 665,225 L 648,228
    L 635,238 L 618,242 L 605,238 L 592,245 L 578,240
    L 565,248 L 552,242 L 538,235 L 528,222 L 522,208
    L 518,192 L 520,175 L 528,162 L 522,148 L 515,135
    L 518,120 L 522,105 Z
  "/>

  <!-- Indian subcontinent -->
  <path d="
    M 600,225
    L 618,220 L 635,225 L 645,238 L 648,255 L 642,270
    L 632,282 L 618,290 L 605,282 L 598,268 L 595,252 Z
  "/>

  <!-- Southeast Asia peninsula -->
  <path d="
    M 680,228
    L 695,232 L 705,245 L 708,262 L 700,275 L 688,280
    L 678,268 L 672,252 L 675,238 Z
  "/>

  <!-- Japan -->
  <path d="
    M 800,148 L 808,142 L 815,148 L 812,160 L 802,162
    L 798,155 Z
  "/>

  <!-- Korean Peninsula -->
  <path d="
    M 782,148 L 792,143 L 798,152 L 792,162 L 782,158 Z
  "/>

  <!-- Indonesia/Maritime Southeast Asia (simplified blobs) -->
  <path d="
    M 710,295 L 730,290 L 750,292 L 762,300 L 755,310
    L 738,312 L 718,308 L 708,302 Z
  "/>
  <path d="
    M 762,298 L 778,292 L 790,298 L 788,310 L 772,312
    L 760,308 Z
  "/>

  <!-- Philippines -->
  <path d="
    M 768,248 L 778,242 L 785,250 L 782,262 L 770,265
    L 765,256 Z
  "/>

  <!-- Sri Lanka -->
  <path d="
    M 622,292 L 628,288 L 632,295 L 628,302 L 620,300 Z
  "/>

  <!-- Australia -->
  <path d="
    M 762,330
    L 785,322 L 810,318 L 835,322 L 852,332 L 862,348
    L 865,368 L 858,388 L 845,400 L 828,408 L 808,410
    L 788,405 L 770,392 L 758,375 L 752,355 L 754,338 Z
  "/>

  <!-- New Zealand -->
  <path d="
    M 888,388 L 895,380 L 900,390 L 895,402 L 886,400 Z
  "/>
  <path d="
    M 882,408 L 890,402 L 895,412 L 888,422 L 880,418 Z
  "/>

  <!-- Iceland -->
  <path d="
    M 415,68 L 428,62 L 438,65 L 440,75 L 430,82
    L 418,80 L 412,74 Z
  "/>

</svg>
